PathFileType	4	(X/Y/Z)	C:/Users/opensim2020/Desktop/walking_exp_matlab/subject02_walking12_straight_02.trc																																																																																																																												
DataRate	CameraRate	NumFrames	NumMarkers	Units	OrigDataRate	OrigDataStartFrame	OrigNumFrames																																																																																																																								
100	100	4	42	mm	100	1016	149																																																																																																																								
Frame#	Time	LFHD			RFHD			LBHD			RBHD			C7			T10			CLAV			STRN			RBAK			LSHO			LUPA			LELB			LFRM			LWRA			LWRB			LFIN			RSHO			RUPA			RELB			RFRM			RWRA			RWRB			RFIN			LASI			RASI			LPSI			RPSI			LTHI			LKNE			LTIB			LANK			LHEE			LTOE			RTHI			RKNE			RTIB			RANK			RHEE			RTOE			*39			*40			*41		
		X1	Y1	Z1	X2	Y2	Z2	X3	Y3	Z3	X4	Y4	Z4	X5	Y5	Z5	X6	Y6	Z6	X7	Y7	Z7	X8	Y8	Z8	X9	Y9	Z9	X10	Y10	Z10	X11	Y11	Z11	X12	Y12	Z12	X13	Y13	Z13	X14	Y14	Z14	X15	Y15	Z15	X16	Y16	Z16	X17	Y17	Z17	X18	Y18	Z18	X19	Y19	Z19	X20	Y20	Z20	X21	Y21	Z21	X22	Y22	Z22	X23	Y23	Z23	X24	Y24	Z24	X25	Y25	Z25	X26	Y26	Z26	X27	Y27	Z27	X28	Y28	Z28	X29	Y29	Z29	X30	Y30	Z30	X31	Y31	Z31	X32	Y32	Z32	X33	Y33	Z33	X34	Y34	Z34	X35	Y35	Z35	X36	Y36	Z36	X37	Y37	Z37	X38	Y38	Z38	X39	Y39	Z39	X40	Y40	Z40	X41	Y41	Z41	X42	Y42	Z42
																																																																																																																															
1	0	-849.47961	1749.32092	-1496.25793	-859.33173	1732.46362	-1353.80945	-970.38599	1660.95422	-1513.30042	-992.18756	1642.56604	-1373.03723	-1024.27783	1533.22791	-1434.95532	-1091.77722	1260.1759	-1425.68665	-889.7301	1456.91724	-1447.02808	-847.78497	1281.75757	-1438.44873	-1090.45386	1363.15906	-1368.41394	-957.75299	1501.65186	-1614.00867	-956.56824	1313.448	-1721.02893	-933.38495	1179.70215	-1761.26111	-892.93726	1057.54443	-1794.58069	-810.63586	945.78961	-1781.54895	-855.1731	942.88971	-1816.10059	-819.67206	889.59198	-1831.44971	-944.31708	1496.22449	-1249.82581	-983.27045	1306.67712	-1166.66479	-978.70477	1158.03821	-1155.32996	-950.35986	1039.1604	-1144.74536	-903.00879	915.05365	-1172.20825	-949.29248	908.33319	-1139.28345	-910.19385	846.26147	-1141.91797	-879.08875	993.71503	-1571.27539	-867.12683	978.86987	-1317.85327	-1081.78711	1043.1842	-1478.2373	-1081.62488	1038.73999	-1363.13708	-975.96686	687.40704	-1622.47729	-1025.99731	488.00821	-1595.87659	-1098.073	305.73807	-1595.5968	-1106.65735	79.35799	-1566.68079	-1139.42029	51.59584	-1514.63904	-952.40198	37.92398	-1591.43958	-873.47211	681.30621	-1236.54175	-814.71375	489.43045	-1266.35168	-916.49152	334.98157	-1278.44617	-1000.495	166.82033	-1329.099	-1039.89294	122.84717	-1394.70374	-886.95544	67.24373	-1291.1687	-964.05768	1804.15698	-1415.15747	NaN	NaN	NaN	NaN	NaN	NaN
2	0.01	-837.62085	1748.50415	-1497.61987	-848.08618	1731.22046	-1355.14514	-958.60437	1660.18396	-1515.20032	-980.961	1641.34949	-1375.06543	-1012.94421	1532.42554	-1437.4303	-1080.89783	1259.42993	-1427.88794	-878.39868	1455.88	-1449.0249	-836.77722	1280.41284	-1440.34363	-1079.77917	1362.45032	-1371.22827	-945.84454	1501.20093	-1616.06287	-942.13092	1314.34448	-1724.70837	-915.57263	1181.97644	-1767.3573	-870.78192	1061.42871	-1801.87439	-784.06604	953.01715	-1791.03247	-829.04388	948.52808	-1824.89063	-791.77905	896.90588	-1841.30444	-934.03528	1494.77173	-1251.87048	-976.48859	1305.68701	-1169.65662	-972.3269	1156.99512	-1158.00574	-945.06177	1037.78894	-1147.53748	-899.51508	912.76898	-1174.33728	-945.52618	906.9458	-1141.79529	-907.62262	844.58789	-1144.04065	-869.58136	992.14905	-1573.68054	-856.21973	977.62201	-1320.37439	-1071.53125	1042.48938	-1479.54761	-1070.88062	1038.48059	-1364.30652	-968.9881	686.22571	-1623.46765	-1021.57031	487.49225	-1596.38977	-1095.91968	306.09424	-1595.79968	-1106.38062	79.77971	-1566.54175	-1139.12683	52.0471	-1514.21118	-952.30261	37.90721	-1591.57837	-860.10284	682.06665	-1238.56152	-799.3656	489.38971	-1269.43945	-893.15009	329.30801	-1282.21448	-967.6098	156.91605	-1333.28931	-1003.99976	110.95838	-1399.23682	-848.62085	64.00333	-1295.29883	-952.7533	1803.38708	-1417.14783	NaN	NaN	NaN	NaN	NaN	NaN
3	0.02	-825.75269	1747.32922	-1498.53613	-836.78314	1729.84204	-1356.35693	-946.75604	1659.25659	-1516.96509	-969.59998	1640.05164	-1376.96338	-1001.52905	1531.33386	-1439.74377	-1069.93848	1258.51892	-1429.92114	-867.02661	1454.67566	-1450.83215	-826.06708	1279.16125	-1442.58545	-1068.99658	1361.49341	-1374.00146	-933.7948	1500.46545	-1617.82678	-927.71985	1315.16223	-1728.1698	-897.93665	1184.1106	-1772.91138	-849.2403	1065.50195	-1808.86377	-757.93213	960.43414	-1799.88501	-803.4187	954.48914	-1833.1543	-764.37085	904.50659	-1850.58679	-923.67975	1493.21472	-1253.92004	-968.20972	1304.547	-1172.10754	-965.78723	1155.82629	-1160.6167	-940.51093	1036.50977	-1149.96155	-896.01361	911.0213	-1176.60559	-942.47705	905.4444	-1144.08643	-904.84125	842.80286	-1146.17041	-859.92932	990.32648	-1575.93896	-845.06189	976.0249	-1322.32642	-1061.17505	1041.58655	-1480.83044	-1060.00574	1037.93555	-1365.55957	-961.62708	684.74292	-1624.05823	-1016.81641	486.84216	-1596.81946	-1093.33496	306.3255	-1595.88013	-1105.76892	80.0993	-1566.22266	-1138.75659	52.43948	-1513.84583	-952.13055	37.81754	-1591.68018	-847.1593	682.22455	-1240.42151	-784.55188	489.01486	-1272.56323	-869.87347	323.50656	-1285.84448	-934.86285	147.34305	-1336.92908	-967.74683	99.62593	-1403.20154	-810.3186	61.33834	-1298.87744	-941.09277	1802.11902	-1418.36707	-2846.00562	1034.12976	3356.90747	NaN	NaN	NaN
4	0.03	-814.04559	1746.19421	-1499.7345	-825.51001	1728.22278	-1357.4104	-934.91962	1658.17773	-1518.59888	-958.31775	1638.63232	-1378.76306	-990.06775	1530.12195	-1441.95264	-1058.92786	1257.43933	-1431.70996	-855.64966	1453.28662	-1452.55994	-814.83954	1277.59351	-1444.35657	-1058.15332	1360.30688	-1376.65417	-921.87079	1499.65247	-1619.78442	-913.27295	1315.89905	-1731.33435	-880.59131	1186.25989	-1778.11353	-827.89996	1069.64075	-1815.40234	-732.54706	968.39246	-1808.47278	-778.28406	960.59546	-1840.8302	-737.5871	912.4577	-1859.38098	-913.22174	1491.5708	-1255.79333	-961.4245	1303.21423	-1175.14087	-959.0528	1154.61865	-1163.04272	-935.03662	1034.80957	-1151.90002	-892.08624	908.80231	-1178.66626	-938.8924	904.06299	-1146.49438	-901.78748	841.03461	-1148.20337	-850.08704	988.24731	-1578.07788	-833.94922	974.50513	-1324.12097	-1050.7467	1040.48767	-1482.03369	-1049.08411	1037.01685	-1366.79712	-954.42792	683.70734	-1624.94971	-1011.7533	486.14319	-1597.18115	-1090.24573	306.44748	-1595.88074	-1105.32861	80.40498	-1565.91174	-1138.44409	53.00723	-1513.47375	-951.94489	37.79689	-1591.82434	-834.24188	682.15436	-1242.28589	-770.01239	488.26352	-1276.16675	-846.90399	317.80984	-1289.22144	-901.28571	138.14941	-1340.77832	-931.1665	88.60693	-1406.75269	-771.75555	59.27481	-1301.9679	-929.53491	1800.81628	-1419.76904	-2845.76563	1034.19666	3356.85229	NaN	NaN	NaN
